<svg width="350" height="531" viewBox="0 0 350 531" fill="none" xmlns="http://www.w3.org/2000/svg">
<path d="M199.881 290.104C217.172 355.954 219.058 439.677 214.393 531.001L191.174 528.098L149.09 353.956L125.871 531.001L99.7495 529.549C91.9458 433.728 84.3476 351.467 96.8471 297.359L199.881 290.104Z" fill="#2F2E41"/>
<path d="M152.174 109.201L121.002 109.202H102.378L85.6176 114.999C79.299 119.211 84.7751 115.841 79.9606 119.751C76.0883 124.661 84.7751 115.841 79.9606 119.751C95.6923 136.439 89.4697 248.587 96.0625 260.158C106.285 278.099 95.9852 218.158 95.8988 226.107C92.0089 217.211 95.5286 260.158 95.8988 226.107C99.7887 235.003 95.5286 263.678 95.5286 263.678L76.7773 260.158L80.6395 261.741L203.702 277.753C203.702 277.753 193.061 229.911 199.715 218.158C206.37 206.405 222.505 170.879 208.105 156.979L194.298 109.202L171.129 109.201L152.174 109.201Z" fill="#00A8D1"/>
<path d="M335.348 284.553C333.323 284.489 331.336 283.985 329.525 283.078C327.714 282.17 326.121 280.88 324.858 279.296C323.594 277.713 322.689 275.874 322.207 273.906C321.724 271.939 321.674 269.89 322.061 267.901L264.335 228.807L271.223 210.182L339.445 257.116C342.744 258.016 345.598 260.095 347.466 262.959C349.335 265.822 350.088 269.272 349.583 272.654C349.078 276.036 347.35 279.115 344.726 281.308C342.102 283.501 338.765 284.656 335.348 284.553Z" fill="#FFB6B6"/>
<path d="M176.991 110.278L168.603 113.6L213.349 200.993L305.982 264.134L319.334 241.566L248.821 180.66L220.591 126.519C216.618 118.9 209.963 113.023 201.911 110.023C193.858 107.024 184.98 107.115 176.991 110.278Z" fill="#00A8D1"/>
<path d="M155.067 102.827C130.171 102.827 109.989 82.6443 109.989 57.7482C109.989 32.8522 130.171 12.6699 155.067 12.6699C179.963 12.6699 200.146 32.8522 200.146 57.7482C200.146 82.6443 179.963 102.827 155.067 102.827Z" fill="#FFB6B6"/>
<path d="M202.302 30.467C198.344 33.6657 199.25 49.2216 194.839 46.6861C190.429 44.1505 189.511 39.61 184.433 39.5624C180.292 39.791 176.386 41.5584 173.482 44.5179C172.941 45.0064 172.427 45.5186 171.928 46.025C171.471 45.8649 171.02 45.7197 170.545 45.6007C166.983 44.731 163.223 45.2604 160.04 47.0799C162.98 47.2898 165.779 48.4184 168.042 50.3062C167.072 51.3926 166.088 52.4851 165.054 53.4948C156.421 61.9552 138.719 52.9454 126.817 50.9124C136.73 61.7364 134.776 67.7789 132.31 82.2464L132.3 83.0367C131.793 79.7003 121.107 79.8666 122.869 84.2937C125.081 88.6671 127.849 92.7364 131.105 96.4006C116.545 86.3141 104.791 72.4106 102.194 55.6158C101.66 52.0846 100.62 48.4817 101.626 45.0387C102.053 43.2979 103.045 41.7477 104.447 40.6303C105.849 39.5128 107.581 38.8912 109.373 38.8624C107.751 33.7106 107.556 28.2155 108.807 22.9614C110.059 17.7073 112.711 12.8906 116.481 9.02332C120.252 5.15606 125 2.38283 130.221 0.99844C135.441 -0.385949 140.939 -0.329733 146.131 1.1611C150.866 2.84409 155.485 4.83773 159.958 7.12906C164.472 9.42925 169.582 10.2947 174.602 9.60944C177.73 8.96341 180.897 7.34415 183.962 8.261C187.514 9.32626 189.041 13.0775 190.465 16.6988C187.793 17.6748 185.472 19.4254 183.799 21.7269C186.562 20.7074 189.576 20.5849 192.412 21.377C192.464 21.3862 192.515 21.4001 192.565 21.4186C195.781 27.1815 195.967 28.5946 202.302 30.467Z" fill="#2F2E41"/>
<path d="M78.2709 310.358C95.3299 240.791 129.131 180.998 185.109 134.151C187.276 130.587 190.767 128.028 194.818 127.035C198.869 126.042 203.149 126.697 206.717 128.855L339.793 209.542C343.357 211.708 345.916 215.2 346.909 219.251C347.901 223.301 347.247 227.581 345.088 231.15C323.722 302.532 291.72 364.473 238.25 407.357C236.084 410.921 232.592 413.48 228.541 414.473C224.49 415.465 220.211 414.811 216.642 412.652L83.5667 331.966C80.0028 329.799 77.4436 326.308 76.4508 322.257C75.458 318.206 76.1125 313.927 78.2709 310.358Z" fill="#F8F9FA"/>
<path opacity="0.2" d="M101.924 333.803C98.3597 331.636 95.8006 328.144 94.8078 324.094C93.815 320.043 94.4696 315.763 96.628 312.195C113.687 242.628 147.488 182.835 203.466 135.987C204.9 133.654 206.925 131.742 209.336 130.443L206.717 128.855C203.148 126.697 198.869 126.042 194.818 127.035C190.767 128.027 187.276 130.586 185.109 134.15C129.131 180.998 95.3299 240.791 78.271 310.358C76.1126 313.926 75.458 318.206 76.4508 322.257C77.4436 326.307 80.0027 329.799 83.5666 331.966L216.642 412.652C219.01 414.078 221.714 414.851 224.478 414.895C227.241 414.939 229.968 414.251 232.38 412.901L101.924 333.803Z" fill="black"/>
<path d="M257.987 294.935L168.661 241.113C167.242 240.255 166.221 238.869 165.823 237.26C165.425 235.65 165.682 233.948 166.537 232.528C167.393 231.108 168.778 230.085 170.387 229.685C171.996 229.285 173.698 229.54 175.119 230.394L264.446 284.216C265.861 285.075 266.879 286.461 267.275 288.069C267.671 289.677 267.413 291.376 266.559 292.795C265.704 294.213 264.322 295.235 262.715 295.636C261.108 296.037 259.408 295.785 257.987 294.935Z" fill="#B4DBE4" fill-opacity="0.2"/>
<path d="M206.023 223.56L186.371 211.719C184.947 210.867 183.92 209.484 183.515 207.875C183.11 206.265 183.362 204.561 184.214 203.137C185.066 201.713 186.449 200.685 188.058 200.281C189.668 199.876 191.372 200.127 192.796 200.979L192.83 201L212.482 212.841C213.898 213.7 214.915 215.085 215.312 216.693C215.708 218.302 215.451 220.001 214.596 221.42C213.741 222.839 212.358 223.861 210.751 224.262C209.144 224.663 207.444 224.41 206.023 223.56Z" fill="#B4DBE4" fill-opacity="0.2"/>
<path d="M243.79 318.499L154.464 264.676C153.043 263.821 152.02 262.436 151.62 260.827C151.219 259.217 151.474 257.515 152.328 256.093C153.183 254.671 154.566 253.647 156.175 253.245C157.784 252.843 159.487 253.096 160.91 253.949L160.922 253.957L250.249 307.78C251.664 308.639 252.682 310.024 253.078 311.632C253.474 313.24 253.216 314.94 252.362 316.358C251.507 317.777 250.125 318.798 248.518 319.2C246.911 319.601 245.211 319.349 243.79 318.499Z" fill="#B4DBE4" fill-opacity="0.2"/>
<path d="M269.331 193.452C283.74 193.452 295.421 181.771 295.421 167.362C295.421 152.953 283.74 141.271 269.331 141.271C254.921 141.271 243.24 152.953 243.24 167.362C243.24 181.771 254.921 193.452 269.331 193.452Z" fill="#444444"/>
<path d="M224.357 446.927C255.155 446.927 280.121 421.961 280.121 391.163C280.121 360.365 255.155 335.398 224.357 335.398C193.559 335.398 168.593 360.365 168.593 391.163C168.593 421.961 193.559 446.927 224.357 446.927Z" fill="white"/>
<path d="M224.359 447.704C213.176 447.704 202.244 444.388 192.946 438.175C183.647 431.962 176.4 423.131 172.12 412.799C167.841 402.468 166.721 391.099 168.903 380.131C171.085 369.163 176.47 359.088 184.377 351.18C192.285 343.273 202.36 337.887 213.328 335.706C224.296 333.524 235.664 334.644 245.996 338.923C256.328 343.203 265.159 350.45 271.372 359.748C277.585 369.046 280.901 379.978 280.901 391.161C280.884 406.152 274.922 420.524 264.321 431.124C253.721 441.724 239.349 447.687 224.359 447.704ZM224.359 336.175C213.483 336.175 202.852 339.4 193.81 345.442C184.767 351.484 177.72 360.072 173.558 370.119C169.396 380.167 168.307 391.223 170.429 401.889C172.551 412.555 177.787 422.353 185.478 430.043C193.168 437.733 202.965 442.97 213.632 445.091C224.298 447.213 235.354 446.124 245.401 441.962C255.449 437.8 264.036 430.752 270.078 421.71C276.12 412.667 279.345 402.036 279.345 391.161C279.329 376.583 273.53 362.606 263.222 352.298C252.913 341.99 238.937 336.191 224.359 336.175Z" fill="#00A8D1"/>
<path d="M216.75 420.187C215.787 420.187 214.837 419.963 213.976 419.532C213.115 419.101 212.366 418.476 211.788 417.705L196.575 397.421C196.085 396.769 195.729 396.027 195.526 395.238C195.323 394.448 195.278 393.627 195.393 392.82C195.508 392.013 195.781 391.237 196.196 390.535C196.611 389.834 197.16 389.221 197.812 388.732C198.464 388.243 199.206 387.888 199.996 387.686C200.786 387.483 201.607 387.439 202.414 387.555C203.221 387.67 203.997 387.944 204.698 388.359C205.399 388.775 206.011 389.325 206.5 389.977L216.453 403.247L242.016 364.903C242.468 364.225 243.049 363.643 243.726 363.19C244.402 362.736 245.162 362.421 245.961 362.261C246.759 362.101 247.582 362.1 248.381 362.259C249.18 362.417 249.94 362.731 250.618 363.182C251.296 363.634 251.878 364.215 252.331 364.892C252.785 365.569 253.1 366.328 253.26 367.127C253.42 367.926 253.421 368.748 253.262 369.548C253.104 370.347 252.79 371.107 252.339 371.785L221.912 417.425C221.361 418.25 220.621 418.932 219.753 419.412C218.885 419.892 217.914 420.157 216.923 420.185C216.865 420.186 216.808 420.187 216.75 420.187Z" fill="#00A8D1"/>
<path d="M86.5692 311.093C84.5808 310.278 82.7931 309.042 81.3298 307.468C79.8665 305.894 78.7624 304.022 78.094 301.979C77.4256 299.937 77.2088 297.774 77.4586 295.64C77.7083 293.506 78.4187 291.451 79.5406 289.618L30.0137 221.151L50.4257 213.406L100.816 285.347C103.761 287.465 105.826 290.589 106.621 294.128C107.415 297.667 106.884 301.375 105.128 304.548C103.372 307.722 100.513 310.141 97.0923 311.347C93.6718 312.553 89.9276 312.463 86.5692 311.093Z" fill="#FFB6B6"/>
<path d="M82.8698 139.135C83.4135 141.214 83.4993 143.386 83.1209 145.501C82.7426 147.616 81.9094 149.624 80.6788 151.386C79.4482 153.147 77.8496 154.62 75.9936 155.703C74.1377 156.786 72.0686 157.453 69.9296 157.658L51.0774 213.57L29.593 222.415L51.0774 159.65L66.4852 134.797C70.5722 137.078 64.1343 145.982 66.4852 143.22C68.8361 140.458 62.8933 135.301 66.4852 134.797C70.0771 134.294 66.4852 134.797 76.7487 130.571C79.7685 132.58 81.9464 135.627 82.8698 139.135Z" fill="#FFB6B6"/>
<path d="M87.5536 120.141C85.3849 118.865 82.8324 118.404 80.3543 118.84C77.8762 119.276 75.6347 120.582 74.0322 122.521L44.7578 157.544L66.2411 191.664L101.542 164.516C105.11 156.699 105.655 147.837 103.072 139.641C100.488 131.446 94.9596 124.499 87.5536 120.141Z" fill="#00A8D1"/>
</svg>
