<svg width="470" height="425" viewBox="0 0 470 425" fill="none" xmlns="http://www.w3.org/2000/svg">
<g clip-path="url(#clip0_1238_1772)">
<path d="M299.773 118.717H274.766V317.496C274.766 320.614 274.107 323.703 272.827 326.584C271.546 329.465 269.67 332.083 267.305 334.289C264.939 336.494 262.131 338.243 259.041 339.437C255.95 340.63 252.638 341.245 249.293 341.245H58.0996V341.472C58.0996 344.591 58.7584 347.679 60.0386 350.56C61.3187 353.442 63.195 356.06 65.5603 358.265C67.9257 360.47 70.7338 362.22 73.8242 363.413C76.9147 364.607 80.2271 365.221 83.5722 365.221H299.773C303.118 365.221 306.43 364.607 309.521 363.413C312.611 362.22 315.419 360.47 317.785 358.265C320.15 356.06 322.027 353.442 323.307 350.56C324.587 347.679 325.246 344.591 325.246 341.472V142.466C325.246 136.167 322.562 130.127 317.785 125.673C313.008 121.219 306.529 118.717 299.773 118.717Z" fill="#B4DBE4" fill-opacity="0.2"/>
<path d="M418.321 408.607C418.764 408.626 419.202 408.518 419.577 408.297C419.951 408.076 420.244 407.753 420.415 407.371C420.586 406.99 420.627 406.569 420.533 406.165C420.438 405.762 420.213 405.395 419.888 405.114L419.74 404.565C419.759 404.521 419.779 404.477 419.799 404.433C420.245 403.451 420.992 402.614 421.947 402.026C422.902 401.439 424.021 401.128 425.165 401.132C426.309 401.136 427.426 401.455 428.376 402.049C429.327 402.643 430.067 403.485 430.505 404.471C432.257 408.403 434.486 412.342 435.035 416.5C435.277 418.337 435.175 420.2 434.734 422.006C438.847 413.641 440.983 404.549 440.996 395.347C440.997 393.038 440.86 390.73 440.584 388.435C440.356 386.554 440.041 384.686 439.637 382.832C437.432 372.769 432.699 363.338 425.826 355.313C422.499 353.62 419.809 351.018 418.118 347.856C417.505 346.72 417.072 345.507 416.832 344.254C417.207 344.3 418.247 338.972 417.964 338.645C418.487 337.905 419.423 337.537 419.994 336.815C422.835 333.225 426.748 333.852 428.791 338.731C433.155 340.785 433.198 344.191 430.52 347.466C428.816 349.55 428.582 352.37 427.087 354.601C427.241 354.785 427.401 354.963 427.555 355.146C430.366 358.517 432.816 362.136 434.87 365.952C434.371 361.677 434.967 357.352 436.61 353.334C438.275 349.589 441.396 346.435 444.144 343.197C444.871 342.327 445.858 341.678 446.981 341.331C448.104 340.985 449.311 340.956 450.451 341.249C451.591 341.542 452.613 342.144 453.386 342.978C454.16 343.812 454.65 344.841 454.797 345.935C454.802 345.983 454.808 346.031 454.813 346.078C454.405 346.293 454.005 346.521 453.614 346.762C453.123 347.068 452.743 347.505 452.522 348.016C452.302 348.527 452.253 349.088 452.381 349.626C452.508 350.164 452.807 350.653 453.238 351.03C453.67 351.406 454.213 351.652 454.796 351.736L454.856 351.745C454.711 353.117 454.454 354.476 454.087 355.812C457.613 368.524 450.001 373.154 439.132 373.362C438.892 373.477 438.658 373.592 438.419 373.701C440.482 379.154 441.777 384.834 442.27 390.598C442.549 393.998 442.532 397.415 442.22 400.813L442.239 400.692C443.026 396.914 445.188 393.504 448.36 391.039C453.07 387.432 459.725 386.103 464.807 383.203C465.347 382.88 465.975 382.707 466.617 382.706C467.259 382.704 467.888 382.874 468.429 383.195C468.971 383.516 469.403 383.974 469.675 384.517C469.946 385.059 470.045 385.662 469.961 386.255L469.94 386.382C469.183 386.67 468.445 387.001 467.732 387.374C467.324 387.589 466.924 387.817 466.533 388.058C466.042 388.364 465.661 388.801 465.441 389.312C465.221 389.823 465.172 390.384 465.299 390.922C465.427 391.46 465.726 391.949 466.157 392.326C466.588 392.702 467.131 392.949 467.715 393.032L467.775 393.041C467.818 393.047 467.855 393.053 467.898 393.058C466.604 395.94 464.787 398.592 462.527 400.899C460.323 411.996 450.854 413.049 440.726 409.818H440.719C439.608 414.32 437.998 418.703 435.915 422.895H418.751C418.69 422.717 418.634 422.533 418.579 422.355C420.168 422.449 421.763 422.36 423.328 422.092C422.055 420.635 420.781 419.167 419.508 417.71C419.48 417.683 419.453 417.654 419.428 417.624C418.782 416.878 418.13 416.138 417.484 415.393L417.484 415.392C417.449 413.106 417.731 410.826 418.321 408.607Z" fill="#B4DBE4" fill-opacity="0.2"/>
<path d="M241.674 87.6367H25.4726C11.4045 87.6367 0 98.2696 0 111.386V310.392C0 323.508 11.4045 334.141 25.4726 334.141H241.674C255.742 334.141 267.146 323.508 267.146 310.392V111.386C267.146 98.2696 255.742 87.6367 241.674 87.6367Z" fill="#00A8D1"/>
<path d="M25.4724 92.5215C22.8152 92.5215 20.184 93.0094 17.7291 93.9575C15.2742 94.9055 13.0436 96.2952 11.1647 98.0469C9.2858 99.7987 7.79535 101.878 6.77849 104.167C5.76164 106.456 5.23828 108.909 5.23828 111.387V310.393C5.23828 315.396 7.37008 320.195 11.1647 323.732C14.9593 327.27 20.106 329.258 25.4724 329.258H163.457C176.386 329.258 189.188 326.884 201.132 322.271C213.077 317.658 223.93 310.897 233.072 302.374C242.214 293.85 249.465 283.731 254.413 272.595C259.361 261.459 261.907 249.523 261.907 237.469V111.387C261.907 108.909 261.384 106.456 260.367 104.167C259.35 101.878 257.86 99.7987 255.981 98.0469C254.102 96.2952 251.871 94.9055 249.416 93.9575C246.961 93.0094 244.33 92.5215 241.673 92.5215H25.4724Z" fill="white"/>
<path d="M194.011 152.917H72.6623C71.5488 152.917 70.4809 152.504 69.6936 151.77C68.9062 151.036 68.4639 150.04 68.4639 149.002C68.4639 147.964 68.9062 146.968 69.6936 146.234C70.4809 145.5 71.5488 145.088 72.6623 145.088H194.011C195.125 145.088 196.193 145.5 196.98 146.234C197.767 146.968 198.21 147.964 198.21 149.002C198.21 150.04 197.767 151.036 196.98 151.77C196.193 152.504 195.125 152.917 194.011 152.917Z" fill="#B4DBE4" fill-opacity="0.2"/>
<path d="M194.011 236.389H72.6623C71.5488 236.389 70.4809 235.977 69.6936 235.243C68.9062 234.509 68.4639 233.513 68.4639 232.475C68.4639 231.437 68.9062 230.441 69.6936 229.707C70.4809 228.973 71.5488 228.561 72.6623 228.561H194.011C195.125 228.561 196.193 228.973 196.98 229.707C197.767 230.441 198.21 231.437 198.21 232.475C198.21 233.513 197.767 234.509 196.98 235.243C196.193 235.977 195.125 236.389 194.011 236.389Z" fill="#B4DBE4" fill-opacity="0.2"/>
<path d="M243.288 194.682H23.385C22.2715 194.682 21.2036 194.27 20.4162 193.536C19.6289 192.802 19.1865 191.806 19.1865 190.768C19.1865 189.73 19.6289 188.734 20.4162 188C21.2036 187.266 22.2715 186.854 23.385 186.854H243.288C244.402 186.854 245.47 187.266 246.257 188C247.045 188.734 247.487 189.73 247.487 190.768C247.487 191.806 247.045 192.802 246.257 193.536C245.47 194.27 244.402 194.682 243.288 194.682Z" fill="#B4DBE4" fill-opacity="0.2"/>
<path d="M226.353 422.943C226.352 423.082 226.381 423.22 226.438 423.348C226.495 423.477 226.578 423.593 226.684 423.692C226.789 423.79 226.914 423.868 227.052 423.921C227.189 423.974 227.337 424.001 227.486 424H468.734C469.034 424 469.322 423.889 469.535 423.691C469.748 423.492 469.867 423.224 469.867 422.943C469.867 422.663 469.748 422.394 469.535 422.196C469.322 421.998 469.034 421.887 468.734 421.887H227.486C227.337 421.886 227.189 421.913 227.052 421.966C226.914 422.019 226.789 422.097 226.684 422.195C226.578 422.293 226.495 422.41 226.438 422.539C226.381 422.667 226.352 422.805 226.353 422.943Z" fill="#CCCCCC"/>
<path d="M272.065 276.861H92.0512C88.1357 276.861 84.3807 278.311 81.6121 280.893C78.8435 283.474 77.2881 286.975 77.2881 290.626C77.2881 294.276 78.8435 297.777 81.6121 300.358C84.3807 302.94 88.1357 304.39 92.0512 304.39H272.065C275.981 304.39 279.736 302.94 282.504 300.358C285.273 297.777 286.828 294.276 286.828 290.626C286.828 286.975 285.273 283.474 282.504 280.893C279.736 278.311 275.981 276.861 272.065 276.861Z" fill="white"/>
<path d="M272.065 305.279H92.0505C87.8825 305.279 83.8852 303.735 80.9379 300.988C77.9907 298.24 76.335 294.513 76.335 290.627C76.335 286.741 77.9907 283.014 80.9379 280.266C83.8852 277.518 87.8825 275.975 92.0505 275.975H272.065C276.233 275.975 280.23 277.518 283.177 280.266C286.124 283.014 287.78 286.741 287.78 290.627C287.78 294.513 286.124 298.24 283.177 300.988C280.23 303.735 276.233 305.279 272.065 305.279ZM92.0505 277.751C88.3877 277.751 84.8749 279.107 82.2849 281.522C79.6949 283.937 78.2399 287.212 78.2399 290.627C78.2399 294.042 79.6949 297.317 82.2849 299.732C84.8749 302.146 88.3877 303.503 92.0505 303.503H272.065C275.727 303.503 279.24 302.146 281.83 299.732C284.42 297.317 285.875 294.042 285.875 290.627C285.875 287.212 284.42 283.937 281.83 281.522C279.24 279.107 275.727 277.751 272.065 277.751H92.0505Z" fill="#00B0FF"/>
<path d="M282.679 336.93H203.238C202.125 336.93 201.057 336.518 200.27 335.784C199.482 335.05 199.04 334.054 199.04 333.016C199.04 331.978 199.482 330.982 200.27 330.248C201.057 329.514 202.125 329.102 203.238 329.102H282.679C283.793 329.102 284.861 329.514 285.648 330.248C286.436 330.982 286.878 331.978 286.878 333.016C286.878 334.054 286.436 335.05 285.648 335.784C284.861 336.518 283.793 336.93 282.679 336.93Z" fill="#00B0FF"/>
<path d="M289.379 166.171C289.869 166.396 290.341 166.659 290.789 166.959L335.642 147.815L337.243 136L355.164 135.891L354.105 162.989L294.905 178.645C294.781 179.056 294.632 179.46 294.458 179.853C293.602 181.679 292.226 183.212 290.502 184.259C288.777 185.305 286.782 185.819 284.767 185.736C282.752 185.652 280.806 184.975 279.175 183.79C277.543 182.604 276.298 180.963 275.596 179.072C274.894 177.181 274.766 175.125 275.229 173.162C275.692 171.199 276.724 169.416 278.197 168.038C279.669 166.659 281.516 165.747 283.506 165.415C285.495 165.083 287.538 165.346 289.379 166.171Z" fill="#FFB8B8"/>
<path d="M349.507 95.5017C345.221 98.0497 342.656 102.732 341.184 107.497C338.459 116.318 336.819 125.438 336.3 134.656L334.744 162.256L315.489 235.426C332.178 249.547 341.805 246.338 364.27 234.788C386.735 223.237 389.302 238.639 389.302 238.639L393.794 176.38L400.213 108.348C398.772 106.613 397.141 105.045 395.351 103.674C389.419 99.0606 382.516 95.8541 375.164 94.2959C367.813 92.7377 360.203 92.8685 352.909 94.6784L349.507 95.5017Z" fill="#00A8D1"/>
<path d="M361.682 411.729H349.422L343.59 364.441L361.684 364.442L361.682 411.729Z" fill="#FFB8B8"/>
<path d="M340.665 408.227H364.309V423.113H325.778C325.778 419.165 327.347 415.379 330.139 412.587C332.93 409.795 336.717 408.227 340.665 408.227Z" fill="#2F2E41"/>
<path d="M409.362 408.265L397.161 409.467L386.72 362.979L404.727 361.205L409.362 408.265Z" fill="#FFB8B8"/>
<path d="M388.103 406.84L411.633 404.522L413.093 419.337L374.747 423.114C374.556 421.168 374.749 419.204 375.317 417.333C375.884 415.463 376.815 413.722 378.055 412.211C379.295 410.699 380.821 409.447 382.545 408.526C384.269 407.604 386.158 407.031 388.103 406.84Z" fill="#2F2E41"/>
<path d="M365.094 85.8447C378.659 85.8447 389.655 74.8484 389.655 61.2837C389.655 47.719 378.659 36.7227 365.094 36.7227C351.53 36.7227 340.533 47.719 340.533 61.2837C340.533 74.8484 351.53 85.8447 365.094 85.8447Z" fill="#FFB8B8"/>
<path d="M346.683 402.168C345.629 402.17 344.608 401.801 343.801 401.124C342.993 400.448 342.45 399.508 342.268 398.47C335.922 363.245 315.18 248.065 314.684 244.875C314.673 244.801 314.667 244.727 314.668 244.653V236.065C314.667 235.752 314.765 235.447 314.947 235.193L317.688 231.355C317.818 231.171 317.989 231.018 318.187 230.91C318.385 230.802 318.605 230.74 318.831 230.73C334.453 229.998 385.615 227.851 388.087 230.939C390.569 234.043 389.692 243.446 389.491 245.299L389.501 245.493L412.486 392.488C412.666 393.66 412.377 394.856 411.682 395.817C410.987 396.778 409.941 397.427 408.772 397.623L394.415 399.988C393.346 400.16 392.251 399.942 391.328 399.374C390.406 398.807 389.718 397.927 389.39 396.895C384.949 382.707 370.061 334.977 364.9 316.508C364.868 316.391 364.794 316.29 364.693 316.224C364.592 316.157 364.469 316.13 364.349 316.147C364.229 316.164 364.119 316.224 364.04 316.316C363.961 316.408 363.918 316.526 363.92 316.647C364.178 334.253 364.801 379.171 365.016 394.684L365.039 396.355C365.049 397.486 364.633 398.58 363.876 399.42C363.118 400.26 362.073 400.785 360.946 400.891L347.103 402.149C346.962 402.162 346.821 402.168 346.683 402.168Z" fill="#2F2E41"/>
<path d="M343.253 180.948C343.771 181.143 344.273 181.378 344.754 181.652L389.102 159.455L389.838 147.429L408.132 146.168L409.112 173.581L349.846 193.18C349.362 195.256 348.258 197.135 346.68 198.567C345.102 200 343.126 200.918 341.013 201.2C338.9 201.482 336.752 201.114 334.854 200.146C332.955 199.177 331.397 197.653 330.386 195.777C329.374 193.901 328.958 191.761 329.193 189.643C329.427 187.524 330.301 185.528 331.697 183.918C333.094 182.308 334.948 181.162 337.012 180.631C339.076 180.101 341.253 180.211 343.253 180.948Z" fill="#FFB8B8"/>
<path d="M399.892 108.658C410.803 112.51 412.726 154.232 412.726 154.232C399.889 147.172 384.484 158.725 384.484 158.725C384.484 158.725 381.275 147.814 377.424 133.693C376.261 129.721 376.122 125.52 377.02 121.48C377.917 117.44 379.823 113.692 382.558 110.587C382.558 110.587 388.98 104.805 399.892 108.658Z" fill="#00A8D1"/>
<path d="M387.117 67.7787C384.057 65.3304 379.882 69.7805 379.882 69.7805L377.434 47.747C377.434 47.747 362.133 49.5799 352.34 47.1354C342.548 44.6909 341.018 56.0105 341.018 56.0105C340.513 51.438 340.41 46.83 340.712 42.2396C341.323 36.7312 349.28 31.2228 363.357 27.5503C377.434 23.8777 384.778 39.7912 384.778 39.7912C394.571 44.687 390.177 70.2271 387.117 67.7787Z" fill="#2F2E41"/>
</g>
<defs>
<clipPath id="clip0_1238_1772">
<rect width="470" height="425" fill="white"/>
</clipPath>
</defs>
</svg>
