<svg width="594" height="356" viewBox="0 0 594 356" fill="none" xmlns="http://www.w3.org/2000/svg">
<g clip-path="url(#clip0_1184_1978)">
<path d="M454.78 351.115C447.176 344.689 442.556 334.538 443.768 324.655C444.979 314.773 452.482 305.688 462.215 303.59C471.947 301.491 483.042 307.3 485.998 316.808C487.625 298.478 489.499 279.38 499.245 263.771C508.069 249.637 523.352 239.524 539.916 237.715C556.479 235.905 573.919 242.739 584.249 255.812C594.579 268.886 597.109 287.892 589.874 302.902C584.544 313.959 574.724 322.187 564.436 328.882C531.191 350.332 491.319 359.055 452.154 353.445L454.78 351.115Z" fill="#B4DBE4" fill-opacity="0.2"/>
<path d="M567.869 243.117C554.202 254.249 541.664 266.699 530.436 280.288C512.865 301.481 498.646 325.243 488.275 350.744C487.515 352.605 490.536 353.415 491.287 351.575C508.256 310.129 535.346 273.599 570.078 245.326C571.638 244.056 569.416 241.857 567.869 243.117Z" fill="white"/>
<path d="M191.218 349.366C201.663 340.54 208.008 326.597 206.344 313.024C204.68 299.451 194.375 286.973 181.007 284.09C167.64 281.208 152.401 289.187 148.341 302.245C146.107 277.069 143.532 250.839 130.147 229.399C118.027 209.987 97.0352 196.096 74.285 193.611C51.5347 191.126 27.5816 200.511 13.393 218.468C-0.79548 236.425 -4.26948 262.53 5.66779 283.145C12.9882 298.332 26.475 309.634 40.6059 318.829C85.6881 348.164 141.613 360.398 194.826 352.567" fill="#B4DBE4" fill-opacity="0.2"/>
<path d="M35.8904 201.031C54.6622 216.321 71.8833 233.421 87.3047 252.085C102.729 270.73 116.308 290.827 127.851 312.093C134.303 324.023 140.1 336.296 145.214 348.857C146.257 351.413 142.107 352.525 141.076 349.998C132.017 327.852 120.81 306.648 107.615 286.688C94.4837 266.801 79.4544 248.234 62.738 231.249C53.2831 221.647 43.3075 212.572 32.8562 204.065C30.714 202.321 33.7659 199.301 35.8904 201.031Z" fill="white"/>
<path d="M426.383 354.352H177.176V98.6586C177.176 44.258 221.434 0 275.834 0H327.724C382.125 0 426.383 44.258 426.383 98.6586V354.352Z" fill="#B4DBE4" fill-opacity="0.2"/>
<path d="M374.493 354.351H177.176V98.6579C177.121 77.8128 183.722 57.4946 196.017 40.6614C196.47 40.0437 196.922 39.4339 197.389 38.8308C203.336 31.0311 210.413 24.1619 218.386 18.4501C218.837 18.1224 219.289 17.8004 219.748 17.4783C226.42 12.8611 233.637 9.08663 241.236 6.24079C241.687 6.06977 242.146 5.89841 242.606 5.73405C249.478 3.28163 256.601 1.60174 263.845 0.725385C264.294 0.664039 264.755 0.616035 265.216 0.56803C272.275 -0.186739 279.395 -0.186739 286.454 0.56803C286.914 0.616035 287.375 0.664033 287.829 0.726041C295.071 1.60245 302.193 3.28214 309.063 5.73408C309.523 5.89844 309.982 6.06979 310.435 6.24115C317.939 9.05108 325.072 12.7692 331.673 17.3126C332.131 17.6277 332.59 17.9497 333.043 18.2718C337.512 21.4621 341.71 25.0164 345.594 28.8982C348.709 32.0119 351.611 35.3309 354.282 38.8329C354.747 39.434 355.199 40.0437 355.651 40.6605C367.946 57.4938 374.548 77.8124 374.493 98.6579V354.351Z" fill="#9AD1DE" fill-opacity="0.7"/>
<path d="M358.448 239.991C364.482 239.991 369.372 235.1 369.372 229.067C369.372 223.033 364.482 218.143 358.448 218.143C352.415 218.143 347.524 223.033 347.524 229.067C347.524 235.1 352.415 239.991 358.448 239.991Z" fill="#00A8D1"/>
<path d="M405.968 346.693H397.597L393.614 314.406L405.969 314.407L405.968 346.693Z" fill="#FFB8B8"/>
<path d="M391.618 344.301H407.761V354.465H381.454C381.454 353.13 381.717 351.808 382.227 350.575C382.738 349.342 383.487 348.222 384.431 347.278C385.375 346.334 386.495 345.585 387.728 345.074C388.961 344.564 390.283 344.301 391.618 344.301Z" fill="#2F2E41"/>
<path d="M447.616 346.693H439.245L435.263 314.406L447.617 314.407L447.616 346.693Z" fill="#FFB8B8"/>
<path d="M433.266 344.301H449.409V354.465H423.102C423.102 353.13 423.365 351.808 423.876 350.575C424.386 349.342 425.135 348.222 426.079 347.278C427.023 346.334 428.143 345.585 429.376 345.074C430.61 344.564 431.931 344.301 433.266 344.301Z" fill="#2F2E41"/>
<path d="M363.977 231.23C363.375 230.342 362.975 229.334 362.804 228.275C362.634 227.216 362.698 226.133 362.991 225.102C363.285 224.071 363.801 223.116 364.504 222.306C365.206 221.496 366.077 220.85 367.057 220.413L395.511 141.986L409.513 149.627L377.024 224.574C377.649 226.268 377.631 228.132 376.973 229.813C376.316 231.495 375.065 232.876 373.456 233.697C371.848 234.517 369.995 234.719 368.248 234.264C366.501 233.81 364.981 232.73 363.977 231.23Z" fill="#FFB8B8"/>
<path d="M443.34 245.967C442.41 245.434 441.608 244.703 440.991 243.826C440.373 242.949 439.956 241.948 439.768 240.892C439.579 239.837 439.625 238.753 439.901 237.716C440.177 236.68 440.676 235.717 441.365 234.895L432.55 151.934L448.484 152.662L452.147 234.265C453.452 235.513 454.253 237.196 454.399 238.996C454.546 240.795 454.027 242.586 452.941 244.028C451.856 245.471 450.279 246.465 448.509 246.822C446.74 247.179 444.9 246.875 443.34 245.967Z" fill="#FFB8B8"/>
<path d="M417.92 127.46C427.182 127.46 434.69 119.953 434.69 110.691C434.69 101.43 427.182 93.9219 417.92 93.9219C408.659 93.9219 401.151 101.43 401.151 110.691C401.151 119.953 408.659 127.46 417.92 127.46Z" fill="#FFB8B8"/>
<path d="M443.233 227.099H392.677L392.738 226.705C392.829 226.117 401.748 167.688 395.17 148.573C394.509 146.695 394.567 144.638 395.333 142.8C396.098 140.962 397.516 139.472 399.313 138.616C408.716 134.188 426.766 128.736 442 141.968C444.241 143.947 445.992 146.421 447.113 149.193C448.234 151.965 448.694 154.961 448.458 157.942L443.233 227.099Z" fill="#00A8D1"/>
<path d="M402.387 176.323L379.626 171.705L390.295 146.423C390.933 143.974 392.517 141.879 394.698 140.596C396.88 139.313 399.481 138.948 401.931 139.581C404.382 140.213 406.481 141.792 407.769 143.97C409.057 146.149 409.428 148.749 408.802 151.201L402.387 176.323Z" fill="#00A8D1"/>
<path d="M431.538 184.896L430.169 153.529C429.132 147.633 432.507 142.059 437.699 141.148C442.891 140.24 447.962 144.329 449.004 150.269L454.147 179.578L431.538 184.896Z" fill="#00A8D1"/>
<path d="M441.551 223.344C449.686 254.325 450.573 293.715 448.379 336.682L437.454 335.316L417.654 253.385L406.73 336.682L394.441 335.999C390.769 290.917 387.194 252.214 393.075 226.758L441.551 223.344Z" fill="#2F2E41"/>
<path d="M428.97 123.651C425.841 126.983 420.032 125.194 419.624 120.642C419.592 120.288 419.594 119.933 419.631 119.58C419.841 117.563 421.006 115.732 420.727 113.603C420.664 113.073 420.467 112.568 420.154 112.136C417.661 108.798 411.809 113.629 409.456 110.607C408.013 108.754 409.709 105.836 408.602 103.765C407.141 101.032 402.813 102.38 400.099 100.883C397.08 99.2176 397.26 94.5846 399.248 91.7666C401.672 88.3298 405.922 86.496 410.12 86.2317C414.317 85.9674 418.486 87.102 422.404 88.6292C426.857 90.3643 431.272 92.7623 434.012 96.6772C437.344 101.438 437.664 107.839 435.998 113.406C434.984 116.793 431.525 120.929 428.97 123.651Z" fill="#2F2E41"/>
<path d="M573.505 354.792H69.4281C69.2129 354.791 69.0068 354.705 68.8548 354.553C68.7029 354.401 68.6176 354.194 68.6176 353.979C68.6176 353.764 68.7029 353.557 68.8548 353.405C69.0068 353.253 69.2129 353.167 69.4281 353.166H573.505C573.72 353.167 573.926 353.253 574.078 353.405C574.23 353.557 574.315 353.764 574.315 353.979C574.315 354.194 574.23 354.401 574.078 354.553C573.926 354.705 573.72 354.791 573.505 354.792Z" fill="#3F3D56"/>
<path d="M320.214 280.272H231.455C230.286 280.279 229.163 279.821 228.331 279C227.499 278.179 227.026 277.061 227.017 275.892V77.7767C227.026 76.6077 227.499 75.4901 228.331 74.669C229.163 73.8479 230.286 73.3903 231.455 73.3965H320.214C321.383 73.3903 322.506 73.8479 323.338 74.669C324.17 75.4901 324.643 76.6077 324.652 77.7767V275.892C324.643 277.061 324.17 278.179 323.338 279C322.506 279.821 321.383 280.279 320.214 280.272Z" fill="white"/>
<path d="M324.652 137.502H227.017V138.867H324.652V137.502Z" fill="#CCCCCC"/>
<path d="M324.993 215.41H227.359V216.776H324.993V215.41Z" fill="#CCCCCC"/>
<path d="M259.107 73.3965H257.741V280.955H259.107V73.3965Z" fill="#CCCCCC"/>
<path d="M293.245 73.3965H291.879V280.955H293.245V73.3965Z" fill="#CCCCCC"/>
</g>
<defs>
<clipPath id="clip0_1184_1978">
<rect width="594" height="355.129" fill="white"/>
</clipPath>
</defs>
</svg>
