<svg width="178" height="30" viewBox="0 0 178 30" fill="none" xmlns="http://www.w3.org/2000/svg">
<circle cx="15" cy="15" r="15" fill="white"/>
<path d="M21.9231 22.4999C21.9231 21.9695 21.744 21.4444 21.3961 20.9544C21.0482 20.4645 20.5382 20.0193 19.8953 19.6443C19.2525 19.2693 18.4893 18.9718 17.6493 18.7688C16.8094 18.5659 15.9091 18.4614 15 18.4614C14.0908 18.4614 13.1906 18.5659 12.3506 18.7688C11.5107 18.9718 10.7475 19.2693 10.1046 19.6443C9.46176 20.0193 8.95181 20.4645 8.60389 20.9544C8.25597 21.4444 8.0769 21.9695 8.0769 22.4999L15 22.4999H21.9231Z" fill="#00A8D1"/>
<circle cx="7.49997" cy="13.2689" r="2.88462" fill="#00A8D1"/>
<circle cx="14.4231" cy="8.65366" r="2.88462" fill="#00A8D1"/>
<circle cx="21.3462" cy="13.2689" r="2.88462" fill="#00A8D1"/>
<path d="M36.7216 23V5.54545H43.4034C44.6648 5.54545 45.7131 5.74432 46.5483 6.14204C47.3892 6.53409 48.017 7.07102 48.4318 7.75284C48.8523 8.43466 49.0625 9.20739 49.0625 10.071C49.0625 10.7812 48.9261 11.3892 48.6534 11.8949C48.3807 12.3949 48.0142 12.8011 47.554 13.1136C47.0938 13.4261 46.5795 13.6506 46.0114 13.7869V13.9574C46.6307 13.9915 47.2244 14.1818 47.7926 14.5284C48.3665 14.8693 48.8352 15.3523 49.1989 15.9773C49.5625 16.6023 49.7443 17.358 49.7443 18.2443C49.7443 19.1477 49.5256 19.9602 49.0881 20.6818C48.6506 21.3977 47.9915 21.9631 47.1108 22.3778C46.2301 22.7926 45.1222 23 43.7869 23H36.7216ZM39.8835 20.358H43.2841C44.4318 20.358 45.2585 20.1392 45.7642 19.7017C46.2756 19.2585 46.5312 18.6903 46.5312 17.9972C46.5312 17.4801 46.4034 17.0142 46.1477 16.5994C45.892 16.179 45.5284 15.8494 45.0568 15.6108C44.5852 15.3665 44.0227 15.2443 43.3693 15.2443H39.8835V20.358ZM39.8835 12.9688H43.0114C43.5568 12.9688 44.0483 12.8693 44.4858 12.6705C44.9233 12.4659 45.267 12.179 45.517 11.8097C45.7727 11.4347 45.9006 10.9915 45.9006 10.4801C45.9006 9.80398 45.6619 9.24716 45.1847 8.80966C44.7131 8.37216 44.0114 8.15341 43.0795 8.15341H39.8835V12.9688ZM54.7365 23H51.3615L57.5064 5.54545H61.4098L67.5632 23H64.1882L59.5263 9.125H59.3899L54.7365 23ZM54.8473 16.1562H64.0518V18.696H54.8473V16.1562ZM69.8622 23V5.54545H76.4077C77.7486 5.54545 78.8736 5.77841 79.7827 6.24432C80.6974 6.71023 81.3878 7.36364 81.8537 8.20454C82.3253 9.03977 82.5611 10.0142 82.5611 11.1278C82.5611 12.2472 82.3224 13.2187 81.8452 14.0426C81.3736 14.8608 80.6776 15.4943 79.7571 15.9432C78.8366 16.3864 77.706 16.608 76.3651 16.608H71.7031V13.983H75.9389C76.723 13.983 77.3651 13.875 77.8651 13.6591C78.3651 13.4375 78.7344 13.1165 78.973 12.696C79.2173 12.2699 79.3395 11.7472 79.3395 11.1278C79.3395 10.5085 79.2173 9.98011 78.973 9.54261C78.7287 9.09943 78.3565 8.7642 77.8565 8.53693C77.3565 8.30398 76.7116 8.1875 75.9219 8.1875H73.0241V23H69.8622ZM78.8793 15.0909L83.2003 23H79.6719L75.4276 15.0909H78.8793ZM85.4716 23V5.54545H88.6335V13.5653H88.8466L95.6562 5.54545H99.517L92.767 13.3778L99.5767 23H95.7756L90.5682 15.517L88.6335 17.8011V23H85.4716ZM111.106 10.3438C111.026 9.59943 110.691 9.01989 110.1 8.60511C109.515 8.19034 108.754 7.98295 107.816 7.98295C107.157 7.98295 106.592 8.08239 106.12 8.28125C105.648 8.48011 105.288 8.75 105.038 9.09091C104.788 9.43182 104.66 9.82102 104.654 10.2585C104.654 10.6222 104.737 10.9375 104.901 11.2045C105.072 11.4716 105.302 11.6989 105.592 11.8864C105.881 12.0682 106.202 12.2216 106.555 12.3466C106.907 12.4716 107.262 12.5767 107.62 12.6619L109.256 13.071C109.915 13.2244 110.549 13.4318 111.157 13.6932C111.771 13.9545 112.319 14.2841 112.802 14.6818C113.29 15.0795 113.677 15.5597 113.961 16.1222C114.245 16.6847 114.387 17.3437 114.387 18.0994C114.387 19.1222 114.126 20.0227 113.603 20.8011C113.08 21.5739 112.325 22.179 111.336 22.6165C110.353 23.0483 109.163 23.2642 107.765 23.2642C106.407 23.2642 105.228 23.054 104.228 22.6335C103.234 22.2131 102.455 21.5994 101.893 20.7926C101.336 19.9858 101.035 19.0028 100.989 17.8438H104.1C104.146 18.4517 104.333 18.9574 104.663 19.3608C104.992 19.7642 105.421 20.0653 105.95 20.2642C106.484 20.4631 107.08 20.5625 107.739 20.5625C108.427 20.5625 109.029 20.4602 109.546 20.2557C110.069 20.0455 110.478 19.7557 110.773 19.3864C111.069 19.0114 111.219 18.5739 111.225 18.0739C111.219 17.6193 111.086 17.2443 110.825 16.9489C110.563 16.6477 110.197 16.3977 109.725 16.1989C109.259 15.9943 108.714 15.8125 108.089 15.6534L106.103 15.142C104.665 14.7727 103.529 14.2131 102.694 13.4631C101.864 12.7074 101.45 11.7045 101.45 10.4545C101.45 9.42614 101.728 8.52557 102.285 7.75284C102.847 6.98011 103.612 6.38068 104.577 5.95454C105.543 5.52273 106.637 5.30682 107.859 5.30682C109.097 5.30682 110.183 5.52273 111.114 5.95454C112.052 6.38068 112.788 6.97443 113.322 7.73579C113.856 8.49148 114.131 9.3608 114.148 10.3438H111.106ZM117.206 23V5.54545H123.751C125.092 5.54545 126.217 5.79545 127.126 6.29545C128.041 6.79545 128.732 7.48295 129.197 8.35795C129.669 9.22727 129.905 10.2159 129.905 11.3239C129.905 12.4432 129.669 13.4375 129.197 14.3068C128.726 15.1761 128.03 15.8608 127.109 16.3608C126.189 16.8551 125.055 17.1023 123.709 17.1023H119.371V14.5028H123.283C124.067 14.5028 124.709 14.3665 125.209 14.0938C125.709 13.821 126.078 13.446 126.317 12.9688C126.561 12.4915 126.683 11.9432 126.683 11.3239C126.683 10.7045 126.561 10.1591 126.317 9.6875C126.078 9.21591 125.706 8.84943 125.2 8.58807C124.7 8.32102 124.055 8.1875 123.266 8.1875H120.368V23H117.206ZM132.947 23H129.572L135.717 5.54545H139.621L145.774 23H142.399L137.737 9.125H137.601L132.947 23ZM133.058 16.1562H142.263V18.696H133.058V16.1562ZM162.193 11.4347H159.006C158.915 10.9119 158.747 10.4489 158.503 10.0455C158.259 9.63636 157.955 9.28977 157.591 9.00568C157.227 8.72159 156.813 8.50852 156.347 8.36648C155.886 8.21875 155.389 8.14489 154.855 8.14489C153.906 8.14489 153.065 8.38352 152.332 8.86079C151.599 9.33239 151.026 10.0256 150.611 10.9403C150.196 11.8494 149.989 12.9602 149.989 14.2727C149.989 15.608 150.196 16.733 150.611 17.6477C151.031 18.5568 151.605 19.2443 152.332 19.7102C153.065 20.1705 153.903 20.4006 154.847 20.4006C155.369 20.4006 155.858 20.3324 156.312 20.196C156.773 20.054 157.185 19.8466 157.548 19.5739C157.918 19.3011 158.227 18.9659 158.477 18.5682C158.733 18.1705 158.909 17.7159 159.006 17.2045L162.193 17.2216C162.074 18.0511 161.815 18.8295 161.418 19.5568C161.026 20.2841 160.511 20.9261 159.875 21.483C159.239 22.0341 158.494 22.4659 157.642 22.7784C156.79 23.0852 155.844 23.2386 154.804 23.2386C153.27 23.2386 151.901 22.8835 150.696 22.1733C149.491 21.4631 148.543 20.4375 147.849 19.0966C147.156 17.7557 146.81 16.1477 146.81 14.2727C146.81 12.392 147.159 10.7841 147.858 9.44886C148.557 8.10795 149.509 7.08239 150.713 6.37216C151.918 5.66193 153.281 5.30682 154.804 5.30682C155.776 5.30682 156.679 5.44318 157.514 5.71591C158.349 5.98864 159.094 6.3892 159.747 6.91761C160.401 7.44034 160.938 8.08239 161.358 8.84375C161.784 9.59943 162.063 10.4631 162.193 11.4347ZM165.089 23V5.54545H176.441V8.19602H168.251V12.9347H175.853V15.5852H168.251V20.3494H176.509V23H165.089Z" fill="black"/>
</svg>
