<svg width="30" height="31" viewBox="0 0 30 31" fill="none" xmlns="http://www.w3.org/2000/svg">
<path d="M29.9738 28.8564L29.4943 26.4488C29.3039 25.495 28.5568 24.7499 27.6018 24.5611L26.9522 24.4329C26.5792 24.3593 26.2863 24.0696 26.2081 23.6971L26.0852 23.1012C26.0451 22.9105 26.1145 22.7129 26.2648 22.5886C26.8507 22.1039 27.3869 21.3899 27.6994 20.5473C28.1301 20.4697 28.5236 20.0557 28.6506 19.4857C28.8069 18.7795 28.4953 18.1096 27.9553 17.9895C27.9484 17.9886 27.9416 17.989 27.9357 17.9886C27.7727 16.1545 27.0656 14.7964 24.7131 14.7964C22.4006 14.7964 21.6662 16.154 21.4934 17.9875C21.4865 17.989 21.4788 17.9886 21.471 17.9895C20.9299 18.1096 20.6193 18.7795 20.7756 19.4856C20.9025 20.0557 21.2951 20.4697 21.7268 20.5473C22.0393 21.3903 22.5765 22.1039 23.1613 22.5891C23.3118 22.7129 23.3812 22.9105 23.342 23.1006L23.218 23.6966C23.1409 24.0691 22.8479 24.3593 22.4738 24.4334L21.8244 24.5611C20.8693 24.7499 20.1223 25.495 19.9318 26.4488L19.4523 28.8564C19.3723 29.2603 19.4769 29.6791 19.7385 29.9971C20.0002 30.3155 20.3908 30.4998 20.8029 30.4998H28.6232C29.0355 30.4998 29.426 30.3154 29.6878 29.9971C29.9494 29.6791 30.0539 29.2603 29.9738 28.8564Z" fill="#00A8D1"/>
<path d="M10.0684 26.4488C9.87797 25.495 9.13098 24.7499 8.17581 24.5611L7.52637 24.4329C7.15328 24.3593 6.86044 24.0696 6.78224 23.6971L6.6592 23.1012C6.61913 22.9105 6.68853 22.7129 6.83892 22.5886C7.42479 22.1039 7.96092 21.3899 8.27342 20.5473C8.70413 20.4697 9.09774 20.0557 9.22463 19.4857C9.38091 18.7795 9.06934 18.1096 8.5293 17.9895C8.52254 17.9886 8.5156 17.989 8.50983 17.9886C8.34672 16.1545 7.63961 14.7964 5.28709 14.7964C2.97462 14.7964 2.24022 16.154 2.06744 17.9875C2.06056 17.989 2.05275 17.9886 2.04493 17.9895C1.5039 18.1096 1.19338 18.7795 1.3496 19.4856C1.47661 20.0557 1.86911 20.4697 2.30087 20.5473C2.61331 21.3903 3.15043 22.1039 3.7355 22.5891C3.88576 22.7129 3.95516 22.9105 3.91603 23.1006L3.79206 23.6966C3.71485 24.0691 3.42194 24.3593 3.04792 24.4334L2.39842 24.5611C1.44343 24.7499 0.696323 25.495 0.505933 26.4488L0.0263604 28.8564C-0.0537648 29.2603 0.0507949 29.6791 0.312442 29.9971C0.574151 30.3155 0.964792 30.4998 1.37695 30.4998H9.19728C9.60944 30.4998 9.99996 30.3154 10.2617 29.9971C10.5234 29.6791 10.6279 29.2603 10.5479 28.8564L10.0684 26.4488Z" fill="#00A8D1"/>
<path d="M20.7245 16.1903C20.831 16.0858 20.8496 15.921 20.7704 15.7957L19.6708 13.5549H21.1971C21.9842 13.5549 22.621 12.919 22.621 12.133V5.68854C22.621 4.90251 21.9842 4.2666 21.1971 4.2666H17.6503V8.36675C17.6503 9.85756 16.4364 11.0698 14.9433 11.0698H10.7265L9.63269 11.7999V12.133C9.63269 12.919 10.2703 13.5549 11.0565 13.5549H15.663L20.327 16.2272C20.452 16.3097 20.6181 16.2946 20.7245 16.1903Z" fill="#00A8D1"/>
<path d="M4.80268 9.78889H6.32909L5.20312 12.0452C5.12206 12.1711 5.14253 12.3363 5.24901 12.4402C5.3096 12.4998 5.38867 12.5299 5.46973 12.5299C5.53131 12.5299 5.59184 12.5124 5.64554 12.4768L10.3369 9.78889H14.9433C15.7295 9.78889 16.3672 9.15149 16.3672 8.36688V1.922C16.3672 1.13689 15.7295 0.5 14.9434 0.5H4.80268C4.01563 0.5 3.37891 1.13689 3.37891 1.922V8.36688C3.37891 9.15149 4.01563 9.78889 4.80268 9.78889ZM12.7129 4.08087C13.3008 4.08087 13.7784 4.55685 13.7784 5.14444C13.7784 5.73154 13.3008 6.20752 12.7129 6.20752C12.125 6.20752 11.6484 5.73154 11.6484 5.14444C11.6484 4.55685 12.125 4.08087 12.7129 4.08087ZM9.87301 4.08087C10.4609 4.08087 10.9375 4.55685 10.9375 5.14444C10.9375 5.73154 10.4609 6.20752 9.87301 6.20752C9.28516 6.20752 8.80757 5.73154 8.80757 5.14444C8.80763 4.55685 9.28522 4.08087 9.87301 4.08087ZM7.03223 4.08087C7.62219 4.08087 8.09773 4.55685 8.09773 5.14444C8.09773 5.73154 7.62219 6.20752 7.03223 6.20752C6.44531 6.20752 5.96784 5.73154 5.96784 5.14444C5.96784 4.55685 6.44531 4.08087 7.03223 4.08087Z" fill="#00A8D1"/>
</svg>
