<svg width="30" height="29" viewBox="0 0 30 29" fill="none" xmlns="http://www.w3.org/2000/svg">
<path d="M14.27 2.43224L27.8254 18.9337L29.0323 17.9015L15.0788 0.915587C14.8695 0.66127 14.566 0.519099 14.2527 0.520024C13.9364 0.522983 13.638 0.672984 13.4341 0.931062L0 17.9135L1.22539 18.9225L14.27 2.43224Z" fill="#00A8D1"/>
<path d="M14.0719 3.93645L3.8938 16.8027L5.90546 28.4997H22.1137L25.0733 16.8027L14.5005 3.93257C14.3807 3.78651 14.1894 3.78842 14.0719 3.93645ZM10.7665 12.9534C11.6756 12.4692 12.9563 13.1409 13.6269 14.4532C14.2972 15.7646 14.1044 17.2204 13.1955 17.7041C12.2865 18.1884 11.0062 17.5166 10.3356 16.2045C9.66435 14.8927 9.85813 13.4371 10.7665 12.9534ZM7.43787 19.6689C6.76756 18.3572 6.96062 16.9013 7.86853 16.4177C8.77741 15.9336 10.0586 16.6052 10.7289 17.9176C11.3991 19.229 11.2062 20.6848 10.2983 21.1685C9.3894 21.6522 8.10861 20.9807 7.43787 19.6689ZM21.1631 16.4177C22.072 16.9014 22.2653 18.3568 21.5943 19.6689C20.9235 20.9806 19.6434 21.6522 18.7345 21.1685C17.8253 20.6848 17.632 19.229 18.3034 17.9176C18.9738 16.6052 20.2543 15.9336 21.1631 16.4177ZM15.4061 14.4532C16.0763 13.1414 17.3577 12.4697 18.2659 12.9534C19.1745 13.4371 19.3678 14.8927 18.6971 16.2045C18.0269 17.5163 16.7455 18.1878 15.8367 17.7041C14.9288 17.2204 14.735 15.7646 15.4061 14.4532ZM17.6759 21.341C17.6759 21.5094 17.6591 21.6732 17.6299 21.8329C18.5148 21.9315 18.8689 23.03 18.8689 23.9596C18.8689 24.9548 18.0785 25.7625 17.1021 25.7625C16.2282 25.7625 15.7268 25.6548 14.6791 25.0966C14.4759 25.1489 13.1386 25.7625 12.256 25.7625C11.2803 25.7625 10.4893 24.9548 10.4893 23.9596C10.4893 22.995 10.897 21.8704 11.8307 21.8222C11.8025 21.666 11.7853 21.5057 11.7853 21.341C11.7853 19.8711 13.2901 18.3359 14.7307 18.3359C16.1714 18.3359 17.6759 19.8711 17.6759 21.341Z" fill="#00A8D1"/>
</svg>
