<svg width="33" height="27" viewBox="0 0 33 27" fill="none" xmlns="http://www.w3.org/2000/svg">
<path d="M28.4176 4.74346C25.9457 3.4736 22.7798 2.36764 19.8931 1.1262C19.7988 1.08501 19.7329 1.05659 19.6963 1.06122C18.3633 0.54852 16.9204 0.272014 15.418 0.272952C14.6535 0.272952 13.9311 0.313264 13.2463 0.391078C11.6313 0.575122 10.2241 0.977958 9.01467 1.58494C6.44115 2.64684 3.74582 3.63198 1.5824 4.74346C0.0635208 5.52347 -0.0765779 6.981 0.025962 7.60081C0.300652 9.26711 1.43955 13.636 1.67393 14.5058C1.8735 15.2483 2.69657 15.8049 3.68992 15.9368C4.25389 18.9553 5.6922 21.6149 7.71552 23.5467C8.74918 24.5319 9.93659 25.3274 11.2367 25.8768C12.5358 26.4261 13.9485 26.7282 15.4179 26.7273C17.0915 26.7283 18.6909 26.3354 20.1348 25.6332C22.3018 24.5786 24.1201 22.8326 25.3963 20.6601C26.267 19.1787 26.8869 17.495 27.1935 15.6887C27.7648 15.4305 28.1906 15.0112 28.3261 14.5058C28.5604 13.636 29.6994 9.26711 29.974 7.60081C30.0766 6.981 29.9365 5.52347 28.4176 4.74346ZM22.4264 21.3586C21.5154 22.4059 20.4378 23.2455 19.2531 23.8213C18.0684 24.3981 16.7785 24.7131 15.418 24.7131C14.2241 24.7131 13.0833 24.4696 12.0204 24.0209C10.9584 23.5723 9.97421 22.9168 9.10538 22.0891H9.10631C8.85729 21.8529 8.62016 21.6002 8.39217 21.3357C8.39768 21.3412 8.40406 21.3475 8.41051 21.3531C13.5173 18.7255 17.9724 13.68 17.6501 7.98349C17.4926 5.21948 16.264 3.44149 14.7982 2.29803C15.0015 2.29164 15.2066 2.28701 15.418 2.28701C16.8014 2.28795 18.1097 2.5617 19.2981 3.06977C19.7742 3.27304 20.2301 3.51474 20.665 3.79124C21.0349 4.80018 21.511 6.16156 22.1005 7.9972C21.2692 13.311 23.179 15.4561 25.1044 15.8827C24.6539 18.0013 23.7072 19.8864 22.4264 21.3586Z" fill="#00A8D1"/>
<path d="M15.6358 18.3101C14.1444 18.3101 12.9349 19.2933 12.9349 20.5073C12.9349 21.7214 14.1444 22.7046 15.6358 22.7046C17.1272 22.7046 18.3366 21.7214 18.3366 20.5073C18.3366 19.2933 17.1272 18.3101 15.6358 18.3101Z" fill="#00A8D1"/>
<circle cx="27" cy="10" r="6" fill="#00A8D1"/>
<path d="M27 7V13" stroke="white" stroke-linecap="round"/>
<path d="M29.9989 10L24 10.1169" stroke="white" stroke-linecap="round"/>
</svg>
