<svg width="30" height="31" viewBox="0 0 30 31" fill="none" xmlns="http://www.w3.org/2000/svg">
<path d="M21.1129 10.5787C21.0636 10.5318 21.0143 10.485 21.0143 10.4381C20.8169 10.1568 20.9156 9.73496 21.2609 9.54746C24.6153 7.71934 25.3059 6.17246 25.9965 4.81309C26.5391 3.64121 27.0818 2.56309 29.0549 1.76621C29.4002 1.62559 29.7949 1.76621 29.9429 2.09434C30.0909 2.42246 29.9429 2.79746 29.5976 2.93809C28.1177 3.50059 27.7724 4.25059 27.2791 5.32871C26.5885 6.78184 25.7005 8.60996 22.0008 10.6256C21.6555 10.8131 21.3102 10.7662 21.1129 10.5787Z" fill="white"/>
<path d="M20.7183 10.1102L20.669 10.0633C20.4223 9.78209 20.521 9.36021 20.817 9.17271C23.9247 6.92271 24.418 5.32896 24.862 3.96959C25.2566 2.75084 25.6019 1.62584 27.4764 0.594586C27.7724 0.407086 28.167 0.500836 28.3643 0.828961C28.5617 1.15709 28.4137 1.53209 28.1177 1.71959C26.6871 2.46959 26.4898 3.21959 26.1445 4.34459C25.6512 5.84459 25.0593 7.71959 21.6062 10.204C21.3596 10.3915 20.9649 10.3446 20.7183 10.1102Z" fill="white"/>
<path d="M9.71787 30.501V21.2666H0L16.8706 5.18848C17.7585 4.34473 19.2384 4.34473 20.1263 5.18848L26.6378 11.376C27.5257 12.2197 27.5257 13.626 26.6378 14.4697L9.71787 30.501Z" fill="white"/>
<path d="M20.225 13.5791C21.5599 13.5791 22.6421 12.5508 22.6421 11.2822C22.6421 10.0137 21.5599 8.98535 20.225 8.98535C18.8901 8.98535 17.8079 10.0137 17.8079 11.2822C17.8079 12.5508 18.8901 13.5791 20.225 13.5791Z" fill="white"/>
</svg>
